<svg width="28" height="28" viewBox="0 0 28 28" fill="none" xmlns="http://www.w3.org/2000/svg">
<path d="M14 26C20.6276 26 26 20.6276 26 14C26 7.3724 20.6276 2 14 2C7.3724 2 2 7.3724 2 14C2 20.6276 7.3724 26 14 26Z" stroke="black" stroke-width="4" stroke-linejoin="round"/>
<path d="M14 10.4C14.4774 10.4 14.9352 10.2104 15.2728 9.8728C15.6104 9.53523 15.8 9.07739 15.8 8.6C15.8 8.12261 15.6104 7.66478 15.2728 7.32721C14.9352 6.98965 14.4774 6.8 14 6.8C13.5226 6.8 13.0648 6.98965 12.7272 7.32721C12.3896 7.66478 12.2 8.12261 12.2 8.6C12.2 9.07739 12.3896 9.53523 12.7272 9.8728C13.0648 10.2104 13.5226 10.4 14 10.4ZM14 21.2C14.4774 21.2 14.9352 21.0104 15.2728 20.6728C15.6104 20.3352 15.8 19.8774 15.8 19.4C15.8 18.9226 15.6104 18.4648 15.2728 18.1272C14.9352 17.7896 14.4774 17.6 14 17.6C13.5226 17.6 13.0648 17.7896 12.7272 18.1272C12.3896 18.4648 12.2 18.9226 12.2 19.4C12.2 19.8774 12.3896 20.3352 12.7272 20.6728C13.0648 21.0104 13.5226 21.2 14 21.2ZM8.6 15.8C9.07739 15.8 9.53523 15.6104 9.8728 15.2728C10.2104 14.9352 10.4 14.4774 10.4 14C10.4 13.5226 10.2104 13.0648 9.8728 12.7272C9.53523 12.3896 9.07739 12.2 8.6 12.2C8.12261 12.2 7.66478 12.3896 7.32721 12.7272C6.98965 13.0648 6.8 13.5226 6.8 14C6.8 14.4774 6.98965 14.9352 7.32721 15.2728C7.66478 15.6104 8.12261 15.8 8.6 15.8ZM19.4 15.8C19.8774 15.8 20.3352 15.6104 20.6728 15.2728C21.0104 14.9352 21.2 14.4774 21.2 14C21.2 13.5226 21.0104 13.0648 20.6728 12.7272C20.3352 12.3896 19.8774 12.2 19.4 12.2C18.9226 12.2 18.4648 12.3896 18.1272 12.7272C17.7896 13.0648 17.6 13.5226 17.6 14C17.6 14.4774 17.7896 14.9352 18.1272 15.2728C18.4648 15.6104 18.9226 15.8 19.4 15.8Z" stroke="black" stroke-width="4" stroke-linejoin="round"/>
<path d="M14 26H26" stroke="black" stroke-width="4" stroke-linecap="round"/>
</svg>
